<?xml version="1.0" encoding="UTF-8" standalone="no"?>
<svg
   viewBox="0 0 256 256"
   version="1.1"
   id="svg2"
   sodipodi:docname="rcolpick.svg"
   width="256"
   height="256"
   inkscape:version="1.4.4 (dcaf3e7d9e, 2026-05-05)"
   xmlns:inkscape="http://www.inkscape.org/namespaces/inkscape"
   xmlns:sodipodi="http://sodipodi.sourceforge.net/DTD/sodipodi-0.dtd"
   xmlns="http://www.w3.org/2000/svg"
   xmlns:svg="http://www.w3.org/2000/svg">
  <sodipodi:namedview
     id="namedview2"
     pagecolor="#ffffff"
     bordercolor="#000000"
     borderopacity="0.25"
     inkscape:showpageshadow="2"
     inkscape:pageopacity="0.0"
     inkscape:pagecheckerboard="0"
     inkscape:deskcolor="#d1d1d1"
     inkscape:zoom="1.4694563"
     inkscape:cx="20.415715"
     inkscape:cy="108.88381"
     inkscape:window-width="1920"
     inkscape:window-height="1011"
     inkscape:window-x="0"
     inkscape:window-y="0"
     inkscape:window-maximized="1"
     inkscape:current-layer="svg2" />
  <defs
     id="defs1">
    <style
       id="style1">.cls-1{fill:none;}.cls-2{fill:#ff0045;}.cls-3{fill:#fff;}</style>
  </defs>
  <title
     id="title1" />
  <g
     data-name="Layer 2"
     id="Layer_2"
     transform="scale(10.666667)">
    <g
       data-name="Layer 3"
       id="Layer_3">
      <rect
         class="cls-1"
         height="24"
         width="24"
         id="rect1"
         x="0"
         y="0" />
      <path
         class="cls-2"
         d="M 1,12 C 1,4 4,1 12,1 20,1 23,4 23,12 23,20 20,23 12,23 4,23 1,20 1,12"
         id="path1" />
      <path
         class="cls-3"
         d="M 16.44,7.08 H 7.56 A 2.16,2.16 0 0 0 5.4,9.24 v 5.52 a 2.16,2.16 0 0 0 2.16,2.16 h 8.88 A 2.16,2.16 0 0 0 18.6,14.76 V 9.24 A 2.16,2.16 0 0 0 16.44,7.08 Z M 12,14.4 A 2.4,2.4 0 1 1 14.4,12 2.39,2.39 0 0 1 12,14.4 Z m 4,-3.54 A 1.32,1.32 0 1 1 17.32,9.54 1.32,1.32 0 0 1 16,10.86 Z"
         id="path2" />
    </g>
  </g>
</svg>
